<?xml version="1.0" standalone="no"?>
<!DOCTYPE svg PUBLIC "-//W3C//DTD SVG 20010904//EN"
 "http://www.w3.org/TR/2001/REC-SVG-20010904/DTD/svg10.dtd">
<svg version="1.0" xmlns="http://www.w3.org/2000/svg"
 width="48px" height="48px" viewBox="0 0 1600.000000 1600.000000"
 preserveAspectRatio="xMidYMid meet">
<metadata>
Created by potrace 1.15, written by Peter Selinger 2001-2017
</metadata>
<g transform="translate(0.000000,1500.000000) scale(0.100000,-0.100000)"
fill="#4594E9" stroke="none">
<path d="M409 15986 c-171 -65 -303 -193 -372 -361 l-32 -80 -3 -7390 c-2
-6556 0 -7396 13 -7450 56 -222 243 -404 463 -450 62 -13 976 -15 7449 -11
4058 3 7396 6 7418 7 22 1 124 -1 226 -6 l187 -8 4 314 c2 173 2 448 0 612
l-4 297 -97 0 c-358 0 -758 81 -1061 214 -771 339 -1380 1208 -1865 2661 -200
601 -358 1192 -620 2325 -174 753 -261 1110 -345 1424 -382 1433 -768 2245
-1344 2835 -259 264 -488 433 -781 576 -772 376 -1715 349 -2455 -70 -374
-212 -734 -548 -1015 -950 -395 -565 -715 -1368 -1024 -2575 -78 -304 -111
-444 -302 -1265 -291 -1253 -463 -1881 -695 -2533 -408 -1148 -932 -1930
-1544 -2302 -340 -207 -747 -319 -1227 -337 l-163 -6 -3 7029 c-2 6458 -4
7033 -18 7081 -59 185 -177 325 -339 402 -52 25 -64 26 -235 28 -131 2 -190
-1 -216 -11z m8424 -5476 c261 -56 469 -172 677 -380 257 -256 489 -645 693
-1162 228 -576 399 -1181 751 -2663 313 -1318 439 -1792 631 -2370 352 -1057
781 -1864 1283 -2410 l56 -60 -2216 -3 c-1219 -1 -3216 -1 -4438 0 l-2221 3
87 100 c495 563 891 1310 1232 2320 189 560 336 1109 642 2395 361 1517 522
2092 745 2660 138 350 259 591 420 835 307 464 634 694 1070 754 39 5 165 8
280 6 166 -3 231 -8 308 -25z"/>
</g>
</svg>
