<?xml version="1.0" standalone="no"?><!DOCTYPE svg PUBLIC "-//W3C//DTD SVG 1.1//EN" "http://www.w3.org/Graphics/SVG/1.1/DTD/svg11.dtd"><svg class="icon" height="48" width = "48" viewBox="0 100 824 824" version="1.1" xmlns="http://www.w3.org/2000/svg"><path d="M377.94126 501.419014H267.218506v-36.907585H377.94126v36.907585z m184.700629-36.907585h-110.721731v36.907585h110.721731v-36.907585z m-369.402281 0H82.516854v36.907585h110.722754v-36.907585z m554.103933 0H636.620787v36.907585h110.722754v-36.907585z m184.701652 0H821.321416v36.907585h110.723777v-36.907585zM84.898087 247.044536l32.870642 47.864124s83.042321-69.778226 174.157505-51.901067c87.657432 24.219611 153.974837 147.630339 162.336272 184.537923 0-0.576121 61.705364 0 61.993936 0-2.883677-39.791262-76.699869-202.416106-204.722638-236.440014-115.273397-34.582633-226.635717 55.939033-226.635717 55.939034zM949.921329 718.978005l-32.871665-47.864124s-83.041298 69.777203-174.156482 51.901067c-87.657432-24.221658-153.974837-147.631362-162.337295-184.537923 0 0.576121-61.705364 0-61.992913 0 2.882654 39.792285 76.698846 202.415083 204.722638 236.440013 115.273397 34.58161 226.635717-55.939033 226.635717-55.939033z" fill="#4594E9" /></svg>