<?xml version="1.0" standalone="no"?>
<!DOCTYPE svg PUBLIC "-//W3C//DTD SVG 20010904//EN"
 "http://www.w3.org/TR/2001/REC-SVG-20010904/DTD/svg10.dtd">
<svg version="1.0" xmlns="http://www.w3.org/2000/svg"
 width="39.612px" height="30.000000px" viewBox="0 0 511.000000 387.000000" style="margin-right: 10px; vertical-align: middle"
 preserveAspectRatio="xMidYMid meet">
<metadata>
Created by potrace 1.15, written by Peter Selinger 2001-2017
</metadata>
<g transform="translate(0.000000, 387.000000) scale(0.100000,-0.100000)"
fill="white" stroke="none">
<path d="M2943 3829 c-102 -21 -242 -68 -318 -106 -140 -71 -305 -200 -395
-309 l-55 -65 -50 8 c-27 4 -129 8 -225 8 -149 -1 -187 -4 -258 -23 -491 -133
-837 -565 -843 -1054 l-1 -76 -73 -27 c-91 -33 -208 -99 -302 -172 -183 -139
-325 -354 -391 -590 -25 -92 -27 -111 -27 -293 0 -172 3 -205 23 -278 110
-401 404 -697 809 -814 l78 -22 1535 -3 c1688 -4 1594 -7 1795 57 180 58 338
154 484 294 182 176 294 369 358 615 23 91 24 108 20 336 -3 227 -5 245 -30
330 -39 126 -134 314 -211 416 -81 107 -203 223 -307 291 l-79 53 0 156 c0
101 -6 186 -16 240 -36 189 -113 370 -220 520 -67 92 -213 237 -305 302 -142
100 -326 177 -508 211 -120 23 -368 21 -488 -5z m520 -343 c315 -94 560 -338
653 -651 50 -170 44 -420 -15 -576 l-18 -47 61 -22 c309 -112 528 -344 618
-656 20 -69 23 -100 22 -249 0 -156 -2 -177 -28 -260 -79 -260 -258 -470 -503
-594 -100 -50 -223 -81 -368 -92 -82 -6 -633 -9 -1500 -6 -1551 4 -1424 -3
-1610 87 -172 84 -281 193 -365 365 -59 122 -80 212 -80 345 0 56 7 133 16
173 20 94 100 257 162 331 74 89 156 152 267 206 119 58 212 80 333 80 l88 0
-30 88 c-24 72 -30 108 -34 209 -6 155 12 243 78 378 84 172 193 281 365 365
123 59 212 80 348 80 118 0 215 -21 322 -69 37 -17 69 -31 71 -31 1 0 21 34
43 76 116 214 317 386 537 458 116 38 176 46 329 42 127 -3 164 -8 238 -30z"/>
<path d="M2075 2090 l-480 -480 323 0 322 0 0 -480 0 -480 320 0 320 0 0 480
0 480 322 0 323 0 -480 480 c-264 264 -482 480 -485 480 -3 0 -221 -216 -485
-480z"/>
</g>
</svg>
