<?xml version="1.0" standalone="no"?>
<!DOCTYPE svg PUBLIC "-//W3C//DTD SVG 20010904//EN"
 "http://www.w3.org/TR/2001/REC-SVG-20010904/DTD/svg10.dtd">
<svg version="1.0" xmlns="http://www.w3.org/2000/svg"
 width="32.81px" height="30px" viewBox="0 0 384.000000 420.000000" style="margin-right: 10px; vertical-align: middle"
 preserveAspectRatio="xMidYMid meet">
<metadata>
Created by potrace 1.15, written by Peter Selinger 2001-2017
</metadata>
<g transform="translate(0.000000,420.000000) scale(0.100000,-0.100000)"
fill="white" stroke="none">
<path d="M2818 4161 c-71 -28 -113 -57 -162 -112 -63 -70 -89 -143 -90 -249
-1 -75 3 -93 31 -152 40 -85 106 -151 191 -191 59 -28 77 -32 152 -31 155 1
275 75 342 212 31 62 33 74 33 167 0 90 -3 106 -28 158 -37 74 -110 148 -184
183 -77 37 -213 44 -285 15z"/>
<path d="M1585 3598 c-31 -6 -113 -64 -335 -234 -162 -124 -312 -242 -333
-263 -96 -91 -123 -180 -73 -238 22 -25 31 -28 83 -27 73 1 88 8 450 200 l292
156 175 -38 c96 -20 180 -41 187 -45 8 -5 -74 -133 -249 -391 -143 -211 -274
-412 -291 -446 -120 -238 -61 -388 217 -559 146 -89 622 -415 617 -423 -26
-45 -351 -862 -366 -917 -45 -180 -7 -285 106 -287 82 -2 171 77 264 234 43
72 432 809 493 935 35 72 39 86 36 141 -7 114 -21 128 -367 365 -167 114 -308
212 -313 217 -7 7 60 123 198 345 l208 335 93 -207 c99 -221 133 -269 205
-289 44 -12 664 3 751 18 155 27 219 99 171 191 -29 56 -73 67 -405 98 -223
21 -303 32 -310 42 -4 8 -68 147 -140 309 -148 331 -165 363 -211 386 -18 9
-99 63 -180 120 -80 57 -157 108 -170 114 -20 9 -657 150 -733 162 -16 3 -48
1 -70 -4z"/>
<path d="M1238 1728 c-30 -40 -81 -110 -113 -155 -44 -61 -66 -83 -82 -83 -66
0 -778 -52 -833 -61 -121 -19 -190 -80 -190 -166 0 -115 81 -161 320 -183 178
-16 750 -50 836 -50 138 0 177 32 351 287 l101 149 -78 58 c-102 75 -213 186
-238 237 l-20 41 -54 -74z"/>
</g>
</svg>
