<?xml version="1.0" standalone="no"?>
<!DOCTYPE svg PUBLIC "-//W3C//DTD SVG 20010904//EN"
 "http://www.w3.org/TR/2001/REC-SVG-20010904/DTD/svg10.dtd">
<svg version="1.0" xmlns="http://www.w3.org/2000/svg"
 width="32.1px" height="30px" viewBox="0 0 916.000000 980.000000" style="margin-right: 10px; vertical-align: middle"
 preserveAspectRatio="xMidYMid meet">
<metadata>
Created by potrace 1.15, written by Peter Selinger 2001-2017
</metadata>
<g transform="translate(0.000000,980.000000) scale(0.100000,-0.100000)"
fill="white" stroke="none">
<path d="M6960 9784 c-300 -47 -586 -163 -843 -344 -113 -80 -320 -284 -409
-404 -170 -229 -290 -506 -344 -797 -9 -46 -18 -163 -21 -259 -6 -194 7 -319
53 -501 14 -55 24 -102 22 -104 -6 -6 -2063 -1167 -2085 -1178 -19 -8 -33 1
-115 74 -172 156 -294 239 -483 330 -715 346 -1582 207 -2153 -345 -171 -165
-283 -319 -388 -531 -347 -705 -218 -1547 325 -2117 638 -671 1666 -791 2434
-285 l97 64 1153 -651 1153 -651 -7 -50 c-13 -88 -9 -304 7 -414 50 -343 179
-641 394 -910 304 -380 737 -625 1230 -697 173 -25 491 -15 655 20 629 133
1144 557 1379 1134 283 694 136 1476 -379 2011 -317 330 -707 524 -1165 581
-109 13 -341 13 -450 0 -536 -67 -1019 -350 -1323 -777 -35 -49 -57 -71 -67
-67 -8 3 -466 259 -1016 571 l-1002 565 34 74 c170 366 216 761 134 1134 -11
47 -25 106 -33 131 l-14 46 1050 594 c578 327 1054 596 1059 597 5 2 48 -34
96 -80 257 -246 587 -416 952 -490 102 -20 143 -23 360 -23 283 0 374 13 608
90 559 184 1005 621 1195 1171 343 989 -183 2063 -1178 2404 -215 73 -326 92
-590 96 -169 2 -255 -1 -325 -12z m517 -768 c467 -101 820 -468 893 -928 18
-110 8 -341 -18 -440 -112 -416 -410 -712 -831 -826 -86 -23 -114 -26 -276
-26 -164 0 -189 3 -280 27 -120 32 -313 126 -406 196 -146 111 -293 299 -360
460 -17 41 -43 118 -57 170 -23 85 -26 115 -26 266 0 152 3 180 26 267 70 258
213 472 421 629 138 104 346 191 522 219 84 13 306 5 392 -14z m-5357 -3012
c216 -39 409 -137 571 -291 414 -394 476 -998 149 -1461 -230 -327 -645 -516
-1036 -472 -198 21 -371 84 -528 189 -537 363 -661 1088 -273 1603 257 342
687 508 1117 432z m5357 -3018 c155 -34 295 -94 427 -186 86 -60 224 -198 283
-285 91 -135 159 -303 183 -457 18 -110 8 -341 -18 -440 -112 -416 -410 -712
-831 -826 -86 -23 -114 -26 -276 -26 -163 0 -189 3 -278 27 -111 30 -274 104
-367 167 -34 23 -93 71 -131 107 -513 484 -468 1290 94 1714 138 104 346 191
522 219 84 13 306 5 392 -14z"/>
</g>
</svg>
